<mxfile host="65bd71144e" pages="1">
    <diagram id="xk0LYboaFIT9QmwzVqD-" name="Page-1">
        <mxGraphModel dx="3056" dy="2968" grid="0" gridSize="10" guides="1" tooltips="1" connect="1" arrows="1" fold="1" page="0" pageScale="1" pageWidth="827" pageHeight="1169" background="#282A36" math="0" shadow="0">
            <root>
                <mxCell id="0"/>
                <mxCell id="1" parent="0"/>
                <mxCell id="201" value="" style="ellipse;whiteSpace=wrap;html=1;fillColor=#FF5555;" parent="1" vertex="1">
                    <mxGeometry x="-89.5" y="-331" width="310" height="310" as="geometry"/>
                </mxCell>
                <mxCell id="202" value="" style="ellipse;whiteSpace=wrap;html=1;fillColor=#8BE9FD;" parent="1" vertex="1">
                    <mxGeometry x="-68" y="-311" width="265" height="265" as="geometry"/>
                </mxCell>
                <mxCell id="207" value="" style="verticalLabelPosition=bottom;verticalAlign=top;html=1;shape=mxgraph.basic.half_circle;fillColor=#CCFFCC;rotation=90;" parent="1" vertex="1">
                    <mxGeometry x="-132.62" y="-248.37" width="265.25" height="139" as="geometry"/>
                </mxCell>
                <mxCell id="153" style="edgeStyle=orthogonalEdgeStyle;rounded=0;orthogonalLoop=1;jettySize=auto;html=1;exitX=0;exitY=0.5;exitDx=0;exitDy=0;entryX=1;entryY=0.5;entryDx=0;entryDy=0;fontSize=13;fontColor=#F8F8F2;strokeWidth=2;strokeColor=#BD93F9;" parent="1" edge="1">
                    <mxGeometry relative="1" as="geometry">
                        <mxPoint x="-102" y="213" as="targetPoint"/>
                    </mxGeometry>
                </mxCell>
                <mxCell id="154" style="edgeStyle=orthogonalEdgeStyle;rounded=0;orthogonalLoop=1;jettySize=auto;html=1;exitX=1;exitY=0.5;exitDx=0;exitDy=0;entryX=0;entryY=0.5;entryDx=0;entryDy=0;strokeColor=#BD93F9;strokeWidth=2;fontSize=13;fontColor=#F8F8F2;" parent="1" edge="1">
                    <mxGeometry relative="1" as="geometry">
                        <mxPoint x="94" y="213" as="sourcePoint"/>
                    </mxGeometry>
                </mxCell>
                <mxCell id="203" value="" style="ellipse;whiteSpace=wrap;html=1;fillColor=#BD93F9;" parent="1" vertex="1">
                    <mxGeometry x="-48.25" y="-288.75" width="225.5" height="226" as="geometry"/>
                </mxCell>
                <mxCell id="204" value="Domain" style="ellipse;whiteSpace=wrap;html=1;fillColor=#FF79C6;" parent="1" vertex="1">
                    <mxGeometry x="-19.870000000000005" y="-262.87" width="168.75" height="168.75" as="geometry"/>
                </mxCell>
                <mxCell id="208" value="&lt;font color=&quot;#000000&quot;&gt;Infra&lt;/font&gt;" style="text;html=1;strokeColor=none;fillColor=none;align=center;verticalAlign=middle;whiteSpace=wrap;rounded=0;rotation=-90;" parent="1" vertex="1">
                    <mxGeometry x="-76" y="-190.5" width="40" height="20" as="geometry"/>
                </mxCell>
                <mxCell id="209" value="&lt;font color=&quot;#000000&quot;&gt;Presentation&lt;/font&gt;" style="text;html=1;strokeColor=none;fillColor=none;align=center;verticalAlign=middle;whiteSpace=wrap;rounded=0;rotation=90;" parent="1" vertex="1">
                    <mxGeometry x="164.5" y="-186.5" width="40" height="20" as="geometry"/>
                </mxCell>
                <mxCell id="210" value="Use Cases" style="text;html=1;strokeColor=none;fillColor=none;align=center;verticalAlign=middle;whiteSpace=wrap;rounded=0;" parent="1" vertex="1">
                    <mxGeometry x="10.509999999999991" y="-282.87" width="108" height="20" as="geometry"/>
                </mxCell>
                <mxCell id="212" value="Main" style="text;html=1;strokeColor=none;fillColor=none;align=center;verticalAlign=middle;whiteSpace=wrap;rounded=0;" parent="1" vertex="1">
                    <mxGeometry x="10.5" y="-331" width="108" height="20" as="geometry"/>
                </mxCell>
            </root>
        </mxGraphModel>
    </diagram>
</mxfile>